# xmcd CD database file
#
# Track frame offsets:
#	150
#	11804
#	22019
#	34155
#	45029
#	58167
#	72258
#	83874
#	94454
#	104580
#	114920
#	125845
#	139299
#	151742
#
# Disc length: 2129 seconds
#
# Revision: 1
# Processed by: cddbd v1.5.2PL0 Copyright (c) Steve Scherf et al.
# Submitted via: CDValet v3.40 - Copyright (c) 1996 - 1998 Greg Leichner
#
DISCID=bf084f0e
DTITLE=Nelson, Willie - Legends Of The Grand Ole Opry - Willie 
DTITLE=Nelson Singing His Early Hits Live!
DYEAR=1900
DGENRE=
TTITLE0=Touch Me
TTITLE1=Mr. Record Man
TTITLE2=Part Where I Cry
TTITLE3=I Never Cared For You
TTITLE4=My Own Peculiar Way
TTITLE5=Family Man
TTITLE6=Funny How Time Slips Away
TTITLE7=There'll Be No Teardrops Tonight
TTITLE8=Healing Hands Of Time
TTITLE9=One Day At A Time
TTITLE10=Fraulein
TTITLE11=Darkness On The Face Of The Earth
TTITLE12=She's Not For You
TTITLE13=Hello Walls
EXTD=
EXTT0=
EXTT1=
EXTT2=
EXTT3=
EXTT4=
EXTT5=
EXTT6=
EXTT7=
EXTT8=
EXTT9=
EXTT10=
EXTT11=
EXTT12=
EXTT13=
PLAYORDER=
